# xmcd
# 
# Track frame offsets:
#     150
#     14527
#     29129
#     44784
#     60649
#     77357
#     94677
#     115567
# 
# Disc length: 1858
# 
# Revision: 4
# Processed by: cddbd v1.5.2PL0 Copyright (c) Steve Scherf et al.
# Submitted via: fre:ac v1.0.17
# 
DISCID=61074008
DTITLE=Marc Broussard - Momentary Setback
DYEAR=2002
DGENRE=Blues
TTITLE0=The Wanderer
TTITLE1=Just Like That
TTITLE2=Blue Jeans
TTITLE3=French Café
TTITLE4=Momentary Setback
TTITLE5=Gotta Be More
TTITLE6=My God
TTITLE7=Jeremiah's Prayer
EXTD=
EXTT0=
EXTT1=
EXTT2=
EXTT3=
EXTT4=
EXTT5=
EXTT6=
EXTT7=
PLAYORDER=
